# xmcd
#
# Track frame offsets:
#	150
#	20047
#	39382
#	58623
#	76921
#	94121
#	112180
#	133356
#	152856
#	168626
#	188555
#	210216
#	224763
#	247487
#
# Disc length: 3661 seconds
#
# Revision: 3680278181
# Processed by: cddbd v1.5.2PL0 Copyright (c) Steve Scherf et al.
# Submitted via: EZCDAudioConverter 8.0.2.1
#
DISCID=d10e4b0e
DTITLE=Như Loan - Best Of Như Loan
DYEAR=2011
DGENRE=World Pop
TTITLE0=Như Loan - Yêu nhau dưới nắng mai
TTITLE1=Như Loan - Men say tình ái
TTITLE2=Như Loan - Khi có chàng
TTITLE3=Như Loan - Người điên biết yêu
TTITLE4=Như Loan, Thái Hòa - Nếu không có em bên đời
TTITLE5=Như Loan - Boulevard
TTITLE6=Như Loan, Lâm Nhật Tiến - Khi giấc mơ về
TTITLE7=Như Loan - Buồn trong đêm mưa
TTITLE8=Như Loan - Em muốn tin anh
TTITLE9=Như Loan, Nguyễn Thắng - Tình đã lãng quên
TTITLE10=Như Loan - Hỡi người tình
TTITLE11=Như Loan - Màu xanh tình yêu
TTITLE12=Như Loan - Về đây anh
TTITLE13=Như Loan, Nguyệt Anh - LK Những ngày mưa gió, Nỗi nhớ dịu êm
EXTD=
EXTT0=
EXTT1=
EXTT2=
EXTT3=
EXTT4=
EXTT5=
EXTT6=
EXTT7=
EXTT8=
EXTT9=
EXTT10=
EXTT11=
EXTT12=
EXTT13=
PLAYORDER=
